<?xml version="1.0" encoding="utf-8"?>
<!-- Generator: Adobe Illustrator 25.0.0, SVG Export Plug-In . SVG Version: 6.00 Build 0)  -->
<!DOCTYPE svg PUBLIC "-//W3C//DTD SVG 1.1//EN" "http://www.w3.org/Graphics/SVG/1.1/DTD/svg11.dtd" [
	<!ENTITY ns_extend "http://ns.adobe.com/Extensibility/1.0/">
	<!ENTITY ns_ai "http://ns.adobe.com/AdobeIllustrator/10.0/">
	<!ENTITY ns_graphs "http://ns.adobe.com/Graphs/1.0/">
	<!ENTITY ns_vars "http://ns.adobe.com/Variables/1.0/">
	<!ENTITY ns_imrep "http://ns.adobe.com/ImageReplacement/1.0/">
	<!ENTITY ns_sfw "http://ns.adobe.com/SaveForWeb/1.0/">
	<!ENTITY ns_custom "http://ns.adobe.com/GenericCustomNamespace/1.0/">
	<!ENTITY ns_adobe_xpath "http://ns.adobe.com/XPath/1.0/">
]>
<svg version="1.1" id="Layer_1" xmlns:x="&ns_extend;" xmlns:i="&ns_ai;" xmlns:graph="&ns_graphs;"
	 xmlns="http://www.w3.org/2000/svg" xmlns:xlink="http://www.w3.org/1999/xlink" x="0px" y="0px" viewBox="0 0 28.3 18.6"
	 style="enable-background:new 0 0 28.3 18.6;" xml:space="preserve">
<style type="text/css">
	.st0{fill:#FFC220;}
	.st1{fill:#007DC6;}
</style>
<metadata>
	<sfw  xmlns="&ns_sfw;">
		<slices></slices>
		<sliceSourceBounds  bottomLeftOrigin="true" height="18.6" width="28.3" x="87" y="81.9"></sliceSourceBounds>
	</sfw>
</metadata>
<g>
	<g>
		<path class="st0" d="M17.5,0h-6.7c-0.7,0-1.3,0.6-1.3,1.3v6.7c0,0.7,0.6,1.3,1.3,1.3h6.7c0.7,0,1.3-0.6,1.3-1.3V1.3
			C18.7,0.6,18.2,0,17.5,0z M12.7,1.3c0.3,0,0.6,0.3,0.6,0.6c0,0.3-0.3,0.6-0.6,0.6c-0.4,0-0.6-0.3-0.6-0.6
			C12.1,1.6,12.4,1.3,12.7,1.3z M12.7,4.2c0.3,0,0.6,0.3,0.6,0.6s-0.3,0.6-0.6,0.6c-0.4,0-0.6-0.3-0.6-0.6S12.4,4.2,12.7,4.2z
			 M13.6,7.9h-1.5V5.9h1.5V7.9z M13.7,4.2h0.7c0.5,0,0.8-0.4,0.8-0.8c0-0.5-0.3-0.8-0.8-0.8h-0.7V1.3h0.9c1.2,0,2.1,0.9,2.1,2.1
			c0,1.2-0.9,2.1-2.1,2.1h-0.9V4.2z M15.4,7.9l-1.3-2.1h1.6l1.4,2.1H15.4z"/>
	</g>
	<g>
		<g>
			<path class="st1" d="M0,12.1h2.7C4.1,12.1,5,13,5,14.2C5,15,4.5,15.7,3.7,16l1.6,2.5H3.5l-1.3-2.1H1.7v2.1H0V12.1z M2.5,15
				c0.4,0,0.8-0.3,0.8-0.7c0-0.4-0.3-0.7-0.8-0.7H1.7V15H2.5z"/>
			<path class="st1" d="M9.9,16c0,0.2,0,0.4,0,0.5H7c0.1,0.5,0.6,0.7,1.2,0.7c0.5,0,1.1-0.2,1.4-0.4v1.4c-0.4,0.2-1,0.3-1.6,0.3
				c-1.5,0-2.6-0.8-2.6-2.4c0-1.4,1-2.4,2.3-2.4C9.1,13.8,9.9,14.8,9.9,16z M7,15.7h1.4c0-0.4-0.3-0.6-0.7-0.6
				C7.3,15.1,7.1,15.3,7,15.7z"/>
			<path class="st1" d="M12.2,13.9v0.6c0.2-0.4,0.7-0.7,1.3-0.7c0.7,0,1.2,0.3,1.4,0.7c0.3-0.4,0.8-0.7,1.5-0.7
				c1.1,0,1.8,0.7,1.8,1.9v2.8h-1.6V16c0-0.5-0.2-0.8-0.6-0.8c-0.5,0-0.7,0.4-0.7,0.8v2.4h-1.6V16c0-0.5-0.2-0.8-0.6-0.8
				c-0.5,0-0.7,0.4-0.7,0.8v2.4h-1.6v-4.6H12.2z"/>
			<path class="st1" d="M20.9,18.6c-1.1,0-1.8-0.7-1.8-1.9v-2.8h1.6v2.5c0,0.5,0.2,0.8,0.7,0.8c0.5,0,0.7-0.4,0.7-0.8v-2.4h1.6v4.6
				h-1.6v-0.5C21.9,18.3,21.5,18.6,20.9,18.6z"/>
			<path class="st1" d="M28,14.1v1.4c-0.3-0.3-0.9-0.4-1.4-0.4c-0.4,0-0.6,0.1-0.6,0.2c0,0.2,0.2,0.3,0.7,0.4
				c0.8,0.2,1.6,0.5,1.6,1.4c0,0.9-0.7,1.5-2,1.5c-0.7,0-1.2-0.2-1.6-0.4v-1.4c0.4,0.3,0.9,0.6,1.6,0.6c0.4,0,0.6-0.1,0.6-0.3
				c0-0.2-0.3-0.3-0.9-0.4c-0.7-0.2-1.4-0.5-1.4-1.4c0-0.9,0.8-1.5,2-1.5C27,13.8,27.6,13.9,28,14.1z"/>
		</g>
	</g>
</g>
</svg>
