<?xml version="1.0" encoding="utf-8"?>
<!-- Generator: Adobe Illustrator 25.0.0, SVG Export Plug-In . SVG Version: 6.00 Build 0)  -->
<!DOCTYPE svg PUBLIC "-//W3C//DTD SVG 1.1//EN" "http://www.w3.org/Graphics/SVG/1.1/DTD/svg11.dtd" [
	<!ENTITY ns_extend "http://ns.adobe.com/Extensibility/1.0/">
	<!ENTITY ns_ai "http://ns.adobe.com/AdobeIllustrator/10.0/">
	<!ENTITY ns_graphs "http://ns.adobe.com/Graphs/1.0/">
	<!ENTITY ns_vars "http://ns.adobe.com/Variables/1.0/">
	<!ENTITY ns_imrep "http://ns.adobe.com/ImageReplacement/1.0/">
	<!ENTITY ns_sfw "http://ns.adobe.com/SaveForWeb/1.0/">
	<!ENTITY ns_custom "http://ns.adobe.com/GenericCustomNamespace/1.0/">
	<!ENTITY ns_adobe_xpath "http://ns.adobe.com/XPath/1.0/">
]>
<svg version="1.1" id="Layer_1"  
	 xmlns="http://www.w3.org/2000/svg" xmlns:xlink="http://www.w3.org/1999/xlink" x="0px" y="0px" viewBox="0 0 40.8 9.2"
	 style="enable-background:new 0 0 40.8 9.2;" xml:space="preserve">
<style type="text/css">
	.st0{fill:#FFC220;}
	.st1{fill:#007DC6;}
</style>
<metadata>
	<sfw  xmlns="&ns_sfw;">
		<slices></slices>
		<sliceSourceBounds  bottomLeftOrigin="true" height="9.2" width="40.8" x="29.7" y="80.6"></sliceSourceBounds>
	</sfw>
</metadata>
<g>
	<g>
		<path class="st0" d="M7.9,0H1.3C0.6,0,0,0.6,0,1.3v6.7c0,0.7,0.6,1.3,1.3,1.3h6.7c0.7,0,1.3-0.6,1.3-1.3V1.3C9.2,0.6,8.6,0,7.9,0z
			 M3.2,1.3c0.3,0,0.6,0.3,0.6,0.6c0,0.3-0.3,0.6-0.6,0.6c-0.4,0-0.6-0.3-0.6-0.6C2.6,1.6,2.8,1.3,3.2,1.3z M3.2,4.2
			c0.3,0,0.6,0.3,0.6,0.6S3.5,5.5,3.2,5.5c-0.4,0-0.6-0.3-0.6-0.6S2.8,4.2,3.2,4.2z M4,7.9H2.5V5.9H4V7.9z M4.1,4.2h0.7
			c0.5,0,0.8-0.4,0.8-0.8c0-0.5-0.3-0.8-0.8-0.8H4.1V1.3H5c1.2,0,2.1,0.9,2.1,2.1c0,1.2-0.9,2.1-2.1,2.1H4.1V4.2z M5.9,7.9L4.6,5.9
			h1.6l1.4,2.1H5.9z"/>
	</g>
	<g>
		<g>
			<path class="st1" d="M12.5,1.4h2.7c1.4,0,2.3,0.9,2.3,2.1c0,0.8-0.5,1.5-1.2,1.8l1.6,2.5H16l-1.3-2.1h-0.5v2.1h-1.7V1.4z M15,4.2
				c0.4,0,0.8-0.3,0.8-0.7c0-0.4-0.3-0.7-0.8-0.7h-0.8v1.5H15z"/>
			<path class="st1" d="M22.4,5.3c0,0.2,0,0.4,0,0.5h-2.8c0.1,0.5,0.6,0.7,1.2,0.7c0.5,0,1.1-0.2,1.4-0.4v1.4
				c-0.4,0.2-1,0.3-1.6,0.3c-1.5,0-2.6-0.8-2.6-2.4c0-1.4,1-2.4,2.3-2.4C21.6,3,22.4,4,22.4,5.3z M19.5,4.9h1.4
				c0-0.4-0.3-0.6-0.7-0.6C19.8,4.3,19.6,4.6,19.5,4.9z"/>
			<path class="st1" d="M24.7,3.1v0.6C24.9,3.3,25.4,3,26,3c0.7,0,1.2,0.3,1.4,0.7C27.8,3.3,28.3,3,28.9,3c1.1,0,1.8,0.7,1.8,1.9
				v2.8H29V5.2c0-0.5-0.2-0.8-0.6-0.8c-0.5,0-0.7,0.4-0.7,0.8v2.4h-1.6V5.2c0-0.5-0.2-0.8-0.6-0.8c-0.5,0-0.7,0.4-0.7,0.8v2.4h-1.6
				V3.1H24.7z"/>
			<path class="st1" d="M33.4,7.8c-1.1,0-1.8-0.7-1.8-1.9V3.1h1.6v2.5c0,0.5,0.2,0.8,0.7,0.8c0.5,0,0.7-0.4,0.7-0.8V3.1h1.6v4.6
				h-1.6V7.2C34.4,7.6,34,7.8,33.4,7.8z"/>
			<path class="st1" d="M40.5,3.4v1.4c-0.3-0.3-0.9-0.4-1.4-0.4c-0.4,0-0.6,0.1-0.6,0.2c0,0.2,0.2,0.3,0.7,0.4
				c0.8,0.2,1.6,0.5,1.6,1.4c0,0.9-0.7,1.5-2,1.5c-0.7,0-1.2-0.2-1.6-0.4V6c0.4,0.3,0.9,0.6,1.6,0.6c0.4,0,0.6-0.1,0.6-0.3
				c0-0.2-0.3-0.3-0.9-0.4C37.7,5.7,37,5.4,37,4.5C37,3.7,37.8,3,39,3C39.5,3,40.1,3.2,40.5,3.4z"/>
		</g>
	</g>
</g>
</svg>
